<svg xmlns="http://www.w3.org/2000/svg" viewBox="0 0 668 132" fill="currentColor" color="#000" role="img" aria-label="A Grelha logo">
  <title>A Grelha</title>
  <path d="M204 23H229V24H204ZM262 23H296V24H262ZM338 23H378V24H338ZM507 23H526V24H507ZM571 23H582V24H571ZM477 23H497V25H477ZM200 24H229V25H200ZM261 24H299V25H261ZM506 24H527V25H506ZM407 23H427V26H407ZM338 24H379V26H338ZM198 25H229V26H198ZM261 25H301V26H261ZM477 25H496V26H477ZM507 25H526V26H507ZM84 23H95V27H84ZM571 24H583V27H571ZM197 26H207V27H197ZM218 26H230V27H218ZM264 26H277V27H264ZM292 26H302V27H292ZM367 26H379V27H367ZM410 26H424V27H410ZM480 26H494V27H480ZM509 26H524V27H509ZM341 26H353V28H341ZM84 27H96V28H84ZM196 27H206V28H196ZM220 27H230V28H220ZM265 27H277V28H265ZM293 27H303V28H293ZM370 27H380V28H370ZM411 27H424V28H411ZM481 27H493V28H481ZM510 27H522V28H510ZM195 28H205V29H195ZM222 28H230V29H222ZM294 28H304V29H294ZM372 28H380V29H372ZM572 27H583V30H572ZM411 28H423V30H411ZM223 29H231V30H223ZM374 29H380V30H374ZM85 28H96V31H85ZM194 29H204V31H194ZM225 30H231V31H225ZM375 30H381V31H375ZM295 29H305V32H295ZM85 31H97V32H85ZM226 31H231V32H226ZM376 31H381V32H376ZM572 30H584V33H572ZM227 32H231V33H227ZM377 32H381V33H377ZM193 31H203V34H193ZM228 33H231V34H228ZM378 33H381V34H378ZM379 34H381V35H379ZM571 33H584V36H571ZM229 34H232V36H229ZM379 35H382V36H379ZM84 32H97V37H84ZM571 36H585V38H571ZM83 37H98V38H83ZM230 36H232V39H230ZM380 36H382V39H380ZM83 38H86V39H83ZM570 38H573V40H570ZM87 38H98V42H87ZM574 38H585V42H574ZM83 39H85V43H83ZM570 40H572V43H570ZM574 42H586V43H574ZM87 42H99V44H87ZM82 43H85V45H82ZM569 43H572V45H569ZM575 43H586V47H575ZM88 44H99V47H88ZM82 45H84V48H82ZM569 45H571V48H569ZM575 47H587V48H575ZM88 47H100V49H88ZM81 48H84V50H81ZM568 48H571V50H568ZM576 48H587V52H576ZM342 28H353V53H342ZM89 49H100V53H89ZM81 50H83V53H81ZM576 52H588V53H576ZM568 50H570V54H568ZM89 53H101V54H89ZM80 53H83V55H80ZM567 54H570V55H567ZM295 32H306V57H295ZM343 53H353V57H343ZM577 53H588V57H577ZM374 54H376V57H374ZM412 30H423V58H412ZM90 54H101V58H90ZM80 55H82V58H80ZM344 57H353V58H344ZM577 57H589V58H577ZM567 55H569V59H567ZM373 57H376V59H373ZM90 58H102V59H90ZM344 58H354V59H344ZM295 57H305V60H295ZM79 58H82V60H79ZM412 58H422V60H412ZM346 59H355V60H346ZM372 59H376V60H372ZM566 59H569V61H566ZM294 60H304V61H294ZM346 60H356V61H346ZM371 60H376V61H371ZM411 60H423V61H411ZM192 34H203V62H192ZM578 58H589V62H578ZM294 61H303V62H294ZM347 61H357V62H347ZM370 61H376V62H370ZM412 61H423V62H412ZM566 61H568V62H566ZM266 28H277V63H266ZM481 28H492V63H481ZM511 28H522V63H511ZM21 58H34V63H21ZM634 58H647V63H634ZM91 59H102V63H91ZM79 60H81V63H79ZM191 62H203V63H191ZM292 62H302V63H292ZM349 62H359V63H349ZM368 62H376V63H368ZM411 62H423V63H411ZM565 62H568V63H565ZM578 62H590V63H578ZM21 63H647V66H21ZM220 66H234V67H220ZM293 66H302V67H293ZM349 66H358V67H349ZM368 66H376V67H368ZM78 66H80V68H78ZM579 66H590V68H579ZM293 67H303V68H293ZM347 67H356V68H347ZM370 67H376V68H370ZM92 66H103V69H92ZM565 66H567V69H565ZM294 68H304V69H294ZM347 68H355V69H347ZM372 68H376V70H372ZM346 69H354V70H346ZM221 67H233V71H221ZM77 68H80V71H77ZM579 68H591V71H579ZM92 69H104V71H92ZM345 70H354V71H345ZM21 66H34V72H21ZM634 66H647V72H634ZM295 69H305V72H295ZM564 69H567V72H564ZM373 70H376V72H373ZM344 71H353V73H344ZM77 71H79V74H77ZM93 71H104V74H93ZM580 71H591V74H580ZM374 72H376V74H374ZM564 72H566V75H564ZM93 74H105V75H93ZM343 73H353V76H343ZM76 74H79V76H76ZM563 75H566V77H563ZM581 74H592V78H581ZM94 75H105V79H94ZM76 76H78V79H76ZM563 77H565V80H563ZM581 78H593V80H581ZM94 79H106V80H94ZM75 79H78V81H75ZM562 80H565V82H562ZM582 80H593V84H582ZM75 81H77V84H75ZM95 80H106V85H95ZM562 82H564V85H562ZM582 84H594V86H582ZM74 84H77V87H74ZM95 85H107V87H95ZM561 85H564V87H561ZM583 86H594V90H583ZM74 87H76V90H74ZM96 87H107V90H96ZM561 87H563V90H561ZM73 90H76V92H73ZM560 90H563V92H560ZM450 91H451V92H450ZM450 92H452V93H450ZM584 90H595V94H584ZM380 92H382V94H380ZM97 90H108V95H97ZM73 92H75V95H73ZM560 92H562V95H560ZM449 93H452V95H449ZM379 94H382V96H379ZM584 94H596V96H584ZM97 95H109V96H97ZM448 95H451V96H448ZM192 66H203V97H192ZM72 95H75V97H72ZM559 95H562V97H559ZM378 96H382V97H378ZM447 96H451V98H447ZM378 97H381V98H378ZM193 97H203V99H193ZM446 98H450V99H446ZM98 96H109V100H98ZM585 96H596V100H585ZM72 97H74V100H72ZM559 97H561V100H559ZM376 98H381V100H376ZM194 99H203V100H194ZM445 99H450V100H445ZM412 66H423V101H412ZM194 100H204V101H194ZM374 100H381V101H374ZM444 100H450V101H444ZM585 100H597V101H585ZM481 66H492V102H481ZM71 100H74V102H71ZM558 100H561V102H558ZM195 101H204V102H195ZM373 101H380V102H373ZM443 101H450V102H443ZM586 101H597V102H586ZM266 66H277V103H266ZM511 66H522V103H511ZM295 72H306V103H295ZM342 76H353V103H342ZM98 100H110V103H98ZM411 101H423V103H411ZM70 102H74V103H70ZM195 102H205V103H195ZM371 102H380V103H371ZM441 102H449V103H441ZM481 102H493V103H481ZM557 102H561V103H557ZM586 102H598V103H586ZM222 71H233V104H222ZM69 103H74V104H69ZM98 103H111V104H98ZM197 103H206V104H197ZM264 103H278V104H264ZM295 103H307V104H295ZM341 103H353V104H341ZM370 103H380V104H370ZM410 103H423V104H410ZM439 103H449V104H439ZM480 103H493V104H480ZM510 103H523V104H510ZM556 103H561V104H556ZM585 103H598V104H585ZM67 104H76V105H67ZM96 104H114V105H96ZM197 104H210V105H197ZM218 104H233V105H218ZM262 104H280V105H262ZM295 104H309V105H295ZM338 104H354V105H338ZM365 104H379V105H365ZM409 104H426V105H409ZM434 104H449V105H434ZM478 104H496V105H478ZM507 104H526V105H507ZM554 104H563V105H554ZM583 104H600V105H583ZM66 105H78V106H66ZM199 105H233V106H199ZM296 105H311V106H296ZM553 105H565V106H553ZM95 105H115V107H95ZM261 105H281V107H261ZM338 105H379V107H338ZM407 105H449V107H407ZM477 105H497V107H477ZM506 105H526V107H506ZM582 105H602V107H582ZM66 106H77V107H66ZM201 106H233V107H201ZM297 106H311V107H297ZM553 106H564V107H553ZM68 107H70V108H68ZM71 107H76V108H71ZM96 107H114V108H96ZM210 107H228V108H210ZM229 107H232V108H229ZM262 107H280V108H262ZM300 107H302V108H300ZM304 107H305V108H304ZM307 107H309V108H307ZM338 107H378V108H338ZM408 107H447V108H408ZM478 107H480V108H478ZM482 107H491V108H482ZM493 107H496V108H493ZM507 107H513V108H507ZM514 107H522V108H514ZM523 107H525V108H523ZM554 107H563V108H554ZM583 107H585V108H583ZM586 107H601V108H586Z" />
</svg>
